<svg xmlns="http://www.w3.org/2000/svg" width="32" height="32" viewBox="0 0 24 24"><g fill="#04456e"><rect x="10.4" y="1" width="3.2" height="5.4" rx="0.8"/><rect x="10.4" y="1" width="3.2" height="5.4" rx="0.8" transform="rotate(45 12 12)"/><rect x="10.4" y="1" width="3.2" height="5.4" rx="0.8" transform="rotate(90 12 12)"/><rect x="10.4" y="1" width="3.2" height="5.4" rx="0.8" transform="rotate(135 12 12)"/><rect x="10.4" y="1" width="3.2" height="5.4" rx="0.8" transform="rotate(180 12 12)"/><rect x="10.4" y="1" width="3.2" height="5.4" rx="0.8" transform="rotate(225 12 12)"/><rect x="10.4" y="1" width="3.2" height="5.4" rx="0.8" transform="rotate(270 12 12)"/><rect x="10.4" y="1" width="3.2" height="5.4" rx="0.8" transform="rotate(315 12 12)"/><path fill-rule="evenodd" d="M12 5.4a6.6 6.6 0 1 0 0 13.2 6.6 6.6 0 0 0 0-13.2zm0 3a3.6 3.6 0 1 1 0 7.2 3.6 3.6 0 0 1 0-7.2z"/></g></svg>
